<svg xmlns="http://www.w3.org/2000/svg" viewBox="0 0 165.738 39.985"><defs><linearGradient id="a" x1="42.449" x2="57.652" y1="14.746" y2="29.95" gradientUnits="userSpaceOnUse"><stop offset="0" stop-color="#f095bc"/><stop offset="0.051" stop-color="#ee85b4"/><stop offset="0.184" stop-color="#eb5fa2"/><stop offset="0.307" stop-color="#e84496"/><stop offset="0.417" stop-color="#e7348e"/><stop offset="0.5" stop-color="#e62e8b"/></linearGradient><linearGradient id="b" x1="40.494" x2="35.779" y1="15.369" y2="25.481" gradientUnits="userSpaceOnUse"><stop offset="0" stop-color="#7d8cc5"/><stop offset="0.091" stop-color="#6e82bf"/><stop offset="0.289" stop-color="#5371b5"/><stop offset="0.465" stop-color="#4366af"/><stop offset="0.6" stop-color="#3d62ad"/></linearGradient><linearGradient id="c" x1="86.048" x2="73.564" y1="5.578" y2="12.785" gradientUnits="userSpaceOnUse"><stop offset="0" stop-color="#7d8cc5"/><stop offset="0.053" stop-color="#6e82bf"/><stop offset="0.169" stop-color="#5371b5"/><stop offset="0.272" stop-color="#4366af"/><stop offset="0.35" stop-color="#3d62ad"/></linearGradient><linearGradient id="d" x1="51.091" x2="67.51" y1="7.386" y2="21.164" gradientUnits="userSpaceOnUse"><stop offset="0" stop-color="#fdda8e"/><stop offset="0.016" stop-color="#fdd887"/><stop offset="0.131" stop-color="#fbcc57"/><stop offset="0.241" stop-color="#fac231"/><stop offset="0.342" stop-color="#f9bb16"/><stop offset="0.432" stop-color="#f8b706"/><stop offset="0.5" stop-color="#f8b500"/></linearGradient></defs><path d="M117.252 14.113h-3.3v11.938h3.3v-5.28h3.39v-2.378h-3.39Zm-6.6 5.892a6.274 6.274 0 0 0-12.5 0 6.274 6.274 0 0 0 12.5 0Zm-9.408 0a3.173 3.173 0 1 1 6.323 0 3.173 3.173 0 1 1-6.323 0Zm4.4 14.093v-.286h11.611v-6.354h-15.02V29.7H113.9v1.92h-11.615v1.6c0 3.735 2.027 4.9 5.08 4.9h10.041v-2.252h-10.031c-1.399 0-1.734-.535-1.734-1.768Zm50.566 1.689a1.974 1.974 0 0 1-2.234-2.174v-3.405h-3.356l.006 2.646c0 3.722 2.147 5.26 6.191 5.26h8.928v-2.327Zm6.078-10.128v5.708h3.272V14.113h-3.272v9.209c-1.6 1.6-5 2.212-7.336 2.212-2.14 0-3.881-.8-3.881-3.141v-4.764h7.815v-2.323h-11.148v6.76c0 4.746 2.932 5.783 7.008 5.783a12.975 12.975 0 0 0 7.539-2.19Zm-21.126-11.546h-3.305V27.36a11.106 11.106 0 0 1-7.433 2.193c-2.145-.051-3.879-.9-3.879-3.615v-1.375h7.646v-9.015h-11v2.324h7.7v4.4h-7.7v2.8c0 5.128 2.782 6.793 7 6.8 2.969 0 6.158-.906 7.664-2.178v8.435h3.305V23.657h3.385v-2.484h-3.385Z" style="fill:#3d62ad"/><path d="M0 16.994c11.04-1.6 21.191 1.94 28.658 5.656a63.15 63.15 0 0 0-4.958-8.258c-6.221-.984-20.113-3.641-23.7 2.602Z" style="fill:#f8b500"/><path d="M49.335 32.65c.106.275.2.553.3.829l.3.827c.12.339.239.68.353 1.018.1.287.2.574.292.863.125.373.24.75.361 1.126l.237.746c.193.625.376 1.249.556 1.875 4.3-.25 8.273-1.321 8.273-2.553a.783.783 0 0 0-.159-.44 22.234 22.234 0 0 0-4.6-5.6 42.407 42.407 0 0 0 4.07-2.228c.666-.394 2.828-1.555 5.219-2.787-.21-.2-.423-.4-.635-.6C61.613 26.91 59.571 28 58.894 28.4c-3.039 1.812-5.914 3.524-9.527 3.424-.118-.005-.236-.017-.357-.024.052.134.1.265.156.4" style="fill:#e62e8b"/><path d="M50.955 37.313c-.121-.376-.236-.753-.361-1.126-.1-.289-.194-.576-.292-.863a72.452 72.452 0 0 0-.353-1.018l-.3-.827a67.867 67.867 0 0 0-.471-1.28c-.053-.133-.108-.262-.164-.4a12.641 12.641 0 0 1-2.878-.517 30.113 30.113 0 0 1-7.185-3.682l-1.486-.923c-2.467-1.515-5.151-3.125-8.44-4.764-.334-.167-.671-.325-1.008-.486.217.41.436.814.641 1.228 3.406 1.7 6.261 3.432 8.374 4.728a53.773 53.773 0 0 0 7.318 4.143 22.24 22.24 0 0 0-4.391 5.42.785.785 0 0 0-.16.44c0 1.407 5.174 2.6 10.11 2.6.611 0 1.23-.017 1.839-.051-.18-.626-.363-1.25-.557-1.875-.077-.25-.158-.501-.236-.747ZM37.913 14.951l.725-.151-.072.016c.136-.026.293-.063.451-.1-.205-.236-.4-.479-.613-.71-.006 0-.656.132-.656.132-4.981 1.015-7.222 1.2-11.5.562a19.917 19.917 0 0 1-2.549-.307c.215.307.42.622.636.934a15.958 15.958 0 0 0 1.832.2c4.403.655 6.799.427 11.746-.576Z" style="fill:#3d62ad"/><path d="m46.479 12.369.615-.22c-.3-.184-.587-.379-.891-.559a75.4 75.4 0 0 1-7.8 2.415c.212.231.408.474.613.71 1.55-.358 4.048-1.145 7.463-2.346Z" style="fill:#e62e8b"/><path d="M83.134 1.42C79.532-.553 74.6-.8 71.41 2.811a7.325 7.325 0 0 0-.9 8.8 6.789 6.789 0 0 0 7.812 2.877c2.8-.762 4.35-4.22 2.545-6.555a3.336 3.336 0 0 0-4.355-.846 1.605 1.605 0 0 0-.635 2.018 1.3 1.3 0 0 0 1.156.708 1.921 1.921 0 0 0 .675-.182c1.175-.419 1.708 1.4.733 1.932a2.324 2.324 0 0 1-.619.258 4.466 4.466 0 0 1-5.022-1.766 4.659 4.659 0 0 1 .666-5.35c1.959-2.212 5.547-2.1 7.964-.617s4.342 4.566 2.514 8.81c-1.47 3.413-5.845 4.4-10.154 4.408a20.032 20.032 0 0 1-2.244-.135c.471.306.938.626 1.4.939.293.014.574.025.842.025 5.758-.012 9.533-1.708 10.912-4.906 2.038-4.736-.129-8.192-2.84-9.85-2.619-1.6-6.673-1.869-9.016.779A5.48 5.48 0 0 0 72.1 10.5a5.322 5.322 0 0 0 5.941 2.121 3.266 3.266 0 0 0 .815-.344 1.811 1.811 0 0 0 .924-1.621 2.131 2.131 0 0 0-.185-.872 1.688 1.688 0 0 0-2.163-.932l-.163.057a1.007 1.007 0 0 1-.234.074.466.466 0 0 1-.42-.259c-.207-.4.158-.808.383-.968a2.534 2.534 0 0 1 3.217.681 2.989 2.989 0 0 1 .424 2.832 3.77 3.77 0 0 1-2.528 2.421 5.979 5.979 0 0 1-6.9-2.529 6.534 6.534 0 0 1 .826-7.8C74.938.069 79.506.378 82.738 2.148a9.235 9.235 0 0 1 3.7 11.891 9.8 9.8 0 0 1-5.135 4.943 32.356 32.356 0 0 1-4.249 1.335l-.562.148c-.034.011-.071.019-.11.029.291.21.587.412.88.625a33.063 33.063 0 0 0 4.352-1.371 10.633 10.633 0 0 0 5.58-5.383 10.1 10.1 0 0 0-4.06-12.945Z" style="fill:#3d62ad"/><path d="M75.525 20.721a30.92 30.92 0 0 0-4.175 1.35c-1.811.763-5.621 2.713-7.176 3.518l-.254.132c.212.2.425.4.635.6 2.691-1.388 5.666-2.877 7.117-3.488a39.864 39.864 0 0 1 5.595-1.715c-.293-.213-.589-.415-.88-.625-.287.075-.573.149-.862.228ZM49.682 11.222c4.2 1.737 14.5 5.971 21.768 6.77.35.041.685.067 1.012.094.163.009.323.015.481.024-.464-.313-.931-.633-1.4-.939-7-.775-16.816-4.752-21.838-6.838-.894.328-2.141.778-3.5 1.257.3.18.593.375.891.559Z" style="fill:#f8b500"/><path d="M49.01 31.8c.121.007.247.019.365.024 3.613.1 6.488-1.612 9.527-3.424.677-.4 2.719-1.493 5.018-2.682a105.727 105.727 0 0 0-16.826-13.569l-.615.22c-3.415 1.2-5.913 1.988-7.462 2.346.364.408.729.813 1.071 1.236.2.249.394.511.594.764.331.422.66.841.974 1.272.246.339.481.69.718 1.037s.5.717.739 1.084c.269.4.514.817.766 1.227.194.322.4.64.588.964.268.458.523.927.777 1.393.156.286.322.567.473.857.265.508.521 1.021.777 1.535.127.256.257.51.379.768.259.544.506 1.095.756 1.646.1.234.208.469.314.7.246.57.481 1.141.71 1.716" style="fill:url(#a)"/><path d="m37.465 26.672 1.486.923a30.113 30.113 0 0 0 7.181 3.691 12.641 12.641 0 0 0 2.878.517c-.112-.3-.238-.591-.357-.887q-.343-.863-.71-1.716c-.106-.233-.213-.468-.314-.7-.25-.551-.5-1.1-.756-1.646-.122-.258-.252-.512-.379-.768a91.872 91.872 0 0 0-.777-1.535c-.151-.29-.317-.571-.473-.857-.254-.466-.509-.935-.777-1.393-.192-.324-.394-.642-.588-.964-.252-.41-.5-.824-.766-1.227-.235-.367-.489-.723-.739-1.084s-.472-.7-.718-1.037c-.314-.431-.643-.85-.974-1.272-.2-.253-.389-.515-.594-.764-.345-.423-.709-.828-1.071-1.236a8.958 8.958 0 0 1-.451.1l.072-.016-.725.151c-4.947 1-7.343 1.231-11.746.574a15.958 15.958 0 0 1-1.832-.2 64.951 64.951 0 0 1 3.682 6.1c.337.161.674.319 1.008.486 3.289 1.635 5.975 3.245 8.44 4.76Z" style="fill:url(#b)"/><path d="m76.5 20.465.562-.148a32.356 32.356 0 0 0 4.249-1.335 9.8 9.8 0 0 0 5.135-4.943 9.235 9.235 0 0 0-3.7-11.891C79.506.378 74.938.069 72.031 3.359a6.534 6.534 0 0 0-.826 7.805 5.979 5.979 0 0 0 6.9 2.529 3.77 3.77 0 0 0 2.528-2.421 2.989 2.989 0 0 0-.424-2.832A2.534 2.534 0 0 0 77 7.759c-.225.16-.59.572-.383.968a.466.466 0 0 0 .42.259 1.007 1.007 0 0 0 .234-.074l.163-.057a1.688 1.688 0 0 1 2.163.932 2.131 2.131 0 0 1 .185.872 1.811 1.811 0 0 1-.924 1.621 3.266 3.266 0 0 1-.815.344A5.322 5.322 0 0 1 72.1 10.5a5.48 5.48 0 0 1 .743-6.345c2.343-2.648 6.4-2.38 9.016-.779 2.711 1.658 4.878 5.114 2.84 9.85-1.379 3.2-5.154 4.894-10.912 4.906-.268 0-.549-.011-.842-.025q1.745 1.16 3.444 2.384c.037-.007.074-.015.111-.026Z" style="fill:url(#c)"/><path d="M75.525 20.721c.289-.079.576-.153.862-.227q-1.7-1.226-3.444-2.384c-.158-.009-.318-.015-.481-.024q1.514 1.332 3.063 2.635Z" style="fill:#f8b500"/><path d="M72.943 18.11c-.158-.009-.318-.015-.481-.024-.327-.027-.662-.053-1.012-.094-7.264-.8-17.569-5.033-21.768-6.77l-2.588.927A105.727 105.727 0 0 1 63.92 25.721l.254-.132c1.555-.8 5.365-2.755 7.176-3.518a30.92 30.92 0 0 1 4.175-1.35c.289-.079.576-.153.862-.227q-1.703-1.225-3.444-2.384Z" style="fill:url(#d)"/><path d="M49.7 3.621a2.11 2.11 0 0 0-2.108 2.109 7.121 7.121 0 0 0 2.111 4.6 7.141 7.141 0 0 0 2.108-4.6A2.112 2.112 0 0 0 49.7 3.621Z" style="fill:#f8b500"/></svg>