<svg xmlns="http://www.w3.org/2000/svg" xml:space="preserve" width="2026.4773" height="470.98257" viewBox="0 0 2026.4773 470.98256"><g style="fill:#565053;fill-opacity:1"><g style="fill:#565053;fill-opacity:1"><path d="M0 0c-.012-2.238-1.793-4.074-4.035-4.098h-.074A4.09 4.09 0 0 0-8.207 0c0 2.266 1.844 4.078 4.098 4.09A4.113 4.113 0 0 0 0 0m7.102 8.605v2.262h-22.817V8.605h10.363V6.563A6.665 6.665 0 0 1-10.797 0c0-3.707 3-6.707 6.688-6.719A6.737 6.737 0 0 1 2.605 0a6.697 6.697 0 0 1-5.437 6.563v2.042z" style="fill:#565053;fill-opacity:1;fill-rule:nonzero;stroke:none" transform="matrix(5.76687 0 0 -5.76687 1670.713 432.234)"/></g><path d="M830.412 339.241h-27.12v21.406h27.12zm21.945 21.406v10.562h-70.841v-10.562h10.324V339.24h-10.324v-10.678h70.841v10.678h-10.475v21.406z" style="fill:#565053;fill-opacity:1;fill-rule:nonzero;stroke:none;stroke-width:4.32515" transform="matrix(1.33333 0 0 -1.33333 556.628 797.332)"/><g style="fill:#565053;fill-opacity:1"><path d="M0 0h-13.066v6.75h-2.602v-9.168H0Z" style="fill:#565053;fill-opacity:1;fill-rule:nonzero;stroke:none" transform="matrix(5.76687 0 0 -5.76687 1858.947 450.999)"/></g><path d="M962.463 338.614h-41.24v22.033h41.24zm11.301 32.595h-63.912v-43.304h63.912z" style="fill:#565053;fill-opacity:1;fill-rule:nonzero;stroke:none;stroke-width:4.32515" transform="matrix(1.33333 0 0 -1.33333 556.628 797.332)"/><g style="fill:#565053;fill-opacity:1"><path d="M0 0h2.629v6.57h9.664v2.246h-22.801V6.57H0Z" style="fill:#565053;fill-opacity:1;fill-rule:nonzero;stroke:none" transform="matrix(5.76687 0 0 -5.76687 1807.721 425.566)"/></g><g style="fill:#565053;fill-opacity:1"><path d="M0 0h-.098c-2.3 0-4.16 1.879-4.172 4.176.012 2.289 1.872 4.172 4.172 4.172 2.301 0 4.157-1.883 4.157-4.172A4.16 4.16 0 0 0 0 0m-.098 10.98c-3.738 0-6.797-3.054-6.82-6.804 0-3.754 3.082-6.809 6.82-6.821 3.762.012 6.821 3.067 6.821 6.821 0 3.75-3.059 6.804-6.821 6.804" style="fill:#565053;fill-opacity:1;fill-rule:nonzero;stroke:none" transform="matrix(5.76687 0 0 -5.76687 1499.532 455.73)"/></g><g style="fill:#565053;fill-opacity:1"><path d="M0 0c-2.219.012-4.027 1.813-4.027 4.023A4.033 4.033 0 0 0 0 8.059a4.044 4.044 0 0 0 4.047-4.036A4.054 4.054 0 0 0 0 0m0 10.613c-3.617 0-6.57-2.953-6.57-6.59C-6.57.398-3.617-2.555 0-2.555c3.652 0 6.605 2.953 6.605 6.578-.027 3.637-2.953 6.59-6.605 6.59" style="fill:#565053;fill-opacity:1;fill-rule:nonzero;stroke:none" transform="matrix(5.76687 0 0 -5.76687 1452.473 363.594)"/></g><g style="fill:#565053;fill-opacity:1"><path d="M0 0v-3.113h-5.797v-2.465H0v-3.02h-5.797v-2.429H0v-4.821h2.59V0Z" style="fill:#565053;fill-opacity:1;fill-rule:nonzero;stroke:none" transform="matrix(5.76687 0 0 -5.76687 1528.231 299.55)"/></g><g style="fill:#565053;fill-opacity:1"><path d="M0 0h-2.664v-10.617h-7.75v-2.469h20.816v2.469H0Z" style="fill:#565053;fill-opacity:1;fill-rule:nonzero;stroke:none" transform="matrix(5.76687 0 0 -5.76687 1966.49 376.953)"/></g><g style="fill:#565053;fill-opacity:1"><path d="M0 0h2.336-.023c1.328 4.59 1.675 9.324 1.675 11.605v7.512h-17.222v-2.418h14.8v-5.062S1.52 5.176 0 0" style="fill:#565053;fill-opacity:1;fill-rule:nonzero;stroke:none" transform="matrix(5.76687 0 0 -5.76687 1993.387 415.204)"/></g></g><g style="fill:#565053;fill-opacity:1"><path d="M0 0h-8.484v10.07H0c2.785 0 5.039-2.246 5.039-5.019C5.039 2.277 2.785 0 0 0m0 16.34h-10.992a4.335 4.335 0 0 1-4.352-4.336v-34.192h6.86v15.95H0c6.23 0 11.293 5.05 11.293 11.289C11.293 11.289 6.23 16.34 0 16.34" style="fill:#565053;fill-opacity:1;fill-rule:nonzero;stroke:none" transform="matrix(5.76687 0 0 -5.76687 529.324 343.027)"/></g><g style="fill:#565053;fill-opacity:1"><path d="M0 0c-.594 0-1.133-.176-1.617-.422a3.482 3.482 0 0 1-1.086-.996.448.448 0 0 1-.082-.156l-9.067-13.614-6.484 10.036C-22.047.547-29.555-.176-29.555-.176l14.258-21.949v-16.438h6.809v16.5L2.664-5.293c.082.105.145.207.203.297.242.387.375.832.434 1.301.035.117.035.261.035.363A3.328 3.328 0 0 1 0 0" style="fill:#565053;fill-opacity:1;fill-rule:nonzero;stroke:none" transform="matrix(5.76687 0 0 -5.76687 384.545 248.595)"/></g><g style="fill:#bbc50c;fill-opacity:1"><path d="M0 0s-3.434 30.492 5.316 26.168C14.078 21.84 9.305 6.898 0 0" style="fill:#bbc50c;fill-opacity:1;fill-rule:nonzero;stroke:none" transform="matrix(5.76687 0 0 -5.76687 159.118 153.33)"/></g><g style="fill:#91847f;fill-opacity:1"><path d="M0 0s-41.332 16.785-28.422 21.051C-4.809 28.813.938 4.859 0 0" style="fill:#91847f;fill-opacity:1;fill-rule:nonzero;stroke:none" transform="matrix(5.76687 0 0 -5.76687 178.312 289.436)"/></g><g style="fill:#fdc318;fill-opacity:1"><path d="M0 0c0-4.676-3.797-8.461-8.461-8.461-4.687 0-8.473 3.785-8.473 8.461a8.47 8.47 0 0 0 8.473 8.473C-3.797 8.473 0 4.676 0 0" style="fill:#fdc318;fill-opacity:1;fill-rule:nonzero;stroke:none" transform="matrix(5.76687 0 0 -5.76687 133.325 92.822)"/></g><g style="fill:#648ebc;fill-opacity:1"><path d="M0 0c-6.594-3.387-17.25-6.387-17.492-2.707-.278 4.641 5.402 12.133 11.789 15.34 0 0 7.137 3.832 13.176 1.332C13.523 11.469 11.219 5.766 0 0" style="fill:#648ebc;fill-opacity:1;fill-rule:nonzero;stroke:none" transform="matrix(5.76687 0 0 -5.76687 285.427 180.79)"/></g><g style="fill:#91847f;fill-opacity:1"><path d="M0 0h5.195c2.965 0 6.207 1.211 6.207 4.484 0 3.602-3.07 4.707-6.168 4.707H0Zm0 12.016h4.219c2.871 0 5.883.621 5.883 4.191 0 3.168-2.786 3.887-5.543 3.887H0Zm-3.07 10.925h7.867c4.281 0 8.558-1.593 8.558-6.351 0-2.965-1.734-4.996-4.507-5.801v-.078c3.316-.297 5.836-2.953 5.836-6.328 0-5.692-5.27-7.211-10.055-7.211H-3.07Z" style="fill:#91847f;fill-opacity:1;fill-rule:nonzero;stroke:none" transform="matrix(5.76687 0 0 -5.76687 670.973 447.98)"/></g><g style="fill:#91847f;fill-opacity:1"><path d="M0 0h3.086v-11.148h.434L15.234 0h4.399L6.918-11.77l13.367-14h-4.472L3.52-12.68h-.434v-13.09H0Z" style="fill:#91847f;fill-opacity:1;fill-rule:nonzero;stroke:none" transform="matrix(5.76687 0 0 -5.76687 1135.724 315.68)"/></g><g style="fill:#91847f;fill-opacity:1"><path d="M0 0c-1.027 1.645-2.871 2.359-4.715 2.359-2.711 0-5.508-1.277-5.508-4.32 0-2.375 1.328-3.434 5.426-4.742C-.785-7.98 2.93-9.293 2.93-14.344c0-5.129-4.414-7.539-9.055-7.539-3 0-6.219.969-7.965 3.563l2.637 2.16c1.098-1.903 3.281-2.875 5.484-2.875 2.629 0 5.617 1.519 5.617 4.484 0 3.16-2.144 3.696-6.738 5.231-3.652 1.187-6.398 2.797-6.398 7.082 0 4.961 4.254 7.437 8.773 7.437 2.871 0 5.317-.789 7.207-3.011z" style="fill:#91847f;fill-opacity:1;fill-rule:nonzero;stroke:none" transform="matrix(5.76687 0 0 -5.76687 1338.825 341.901)"/></g><g style="fill:#91847f;fill-opacity:1"><path d="M0 0c-5.785 0-10.512 4.719-10.512 10.531 0 5.805 4.727 10.512 10.512 10.512a10.505 10.505 0 0 0 10.523-10.512C10.523 4.719 5.832 0 0 0m0 23.973c-7.426 0-13.441-6.02-13.441-13.442C-13.441 3.109-7.426-2.926 0-2.926c7.438 0 13.461 6.035 13.461 13.457 0 7.422-6.023 13.442-13.461 13.442" style="fill:#91847f;fill-opacity:1;fill-rule:nonzero;stroke:none" transform="matrix(5.76687 0 0 -5.76687 853.237 449.917)"/></g><g style="fill:#91847f;fill-opacity:1"><path d="M0 0c-5.797 0-10.523 4.719-10.523 10.531 0 5.805 4.726 10.512 10.523 10.512 5.809 0 10.52-4.707 10.52-10.512C10.52 4.719 5.809 0 0 0m0 23.973c-7.414 0-13.441-6.02-13.441-13.442C-13.441 3.109-7.414-2.926 0-2.926c7.438 0 13.449 6.035 13.449 13.457 0 7.422-6.011 13.442-13.449 13.442" style="fill:#91847f;fill-opacity:1;fill-rule:nonzero;stroke:none" transform="matrix(5.76687 0 0 -5.76687 1028.609 449.917)"/></g></svg>